<?xml version="1.0" encoding="UTF-8"?>
<svg width="265px" height="122px" viewBox="0 0 265 122" version="1.1" xmlns="http://www.w3.org/2000/svg" xmlns:xlink="http://www.w3.org/1999/xlink">
    <!-- Generator: Sketch 50.2 (55047) - http://www.bohemiancoding.com/sketch -->
    <title>Group</title>
    <desc>Created with Sketch.</desc>
    <defs></defs>
    <g id="Wireframe-&amp;-UI" stroke="none" stroke-width="1" fill="none" fill-rule="evenodd">
        <g id="写信_填写信息-UI" transform="translate(-55.000000, -218.000000)">
            <g id="Group" transform="translate(54.000000, 207.000000)">
                <path d="M4.51464844,132 L1.6171875,132 L1.6171875,116.67041 L4.94140625,116.67041 L9.17529297,126.171387 L9.27636719,126.171387 L13.5102539,116.67041 L16.8120117,116.67041 L16.8120117,132 L13.8808594,132 L13.8808594,122.072266 L13.7460938,122.072266 L10.2197266,129.956055 L8.18701172,129.956055 L4.64941406,122.072266 L4.51464844,122.072266 L4.51464844,132 Z M21.8208008,132 L18.5751953,132 L23.6513672,116.67041 L27.503418,116.67041 L32.5571289,132 L29.0869141,132 L27.9526367,128.192871 L22.9663086,128.192871 L21.8208008,132 Z M25.5493164,119.725098 L25.4033203,119.725098 L23.6064453,125.800781 L27.3237305,125.800781 L25.5493164,119.725098 Z M37.5546875,132 L34.2978516,132 L34.2978516,116.67041 L37.5546875,116.67041 L37.5546875,132 Z M50.3686523,129.248535 L50.3686523,132 L40.7216797,132 L40.7216797,116.67041 L43.9785156,116.67041 L43.9785156,129.248535 L50.3686523,129.248535 Z M55.8266602,127.597656 L58.9487305,127.597656 C59.0385742,128.731934 60.0605469,129.742676 62.003418,129.742676 C63.8115234,129.742676 64.7773438,128.934082 64.7773438,127.743652 C64.7773438,126.699219 63.9912109,126.193848 62.4414062,125.845703 L60.1391602,125.317871 C57.9829102,124.857422 56.1860352,123.644531 56.1860352,121.039062 C56.1860352,118.029297 58.746582,116.355957 61.9921875,116.355957 C65.4174805,116.355957 67.7197266,118.242676 67.753418,120.949219 L64.7211914,120.949219 C64.6425781,119.871094 63.7553711,118.871582 61.980957,118.871582 C60.4086914,118.871582 59.4316406,119.612793 59.4316406,120.791992 C59.4316406,121.679199 60.1503906,122.274414 61.5205078,122.555176 L63.8452148,123.071777 C66.0913086,123.554688 67.9892578,124.644043 67.9892578,127.429199 C67.9892578,130.438965 65.6420898,132.291992 61.8461914,132.291992 C57.331543,132.291992 55.871582,129.765137 55.8266602,127.597656 Z M80.4213867,129.37207 L80.4213867,132 L70.4150391,132 L70.4150391,116.67041 L80.4213867,116.67041 L80.4213867,119.29834 L73.6381836,119.29834 L73.6381836,123.026855 L80.0170898,123.026855 L80.0170898,125.475098 L73.6381836,125.475098 L73.6381836,129.37207 L80.4213867,129.37207 Z M86.1601562,132 L83.1391602,132 L83.1391602,116.67041 L85.8007812,116.67041 L92.3930664,126.508301 L92.5053711,126.508301 L92.5053711,116.67041 L95.5263672,116.67041 L95.5263672,132 L92.8759766,132 L86.2724609,122.094727 L86.1601562,122.094727 L86.1601562,132 Z M98.6933594,116.67041 L104.432129,116.67041 C109.384766,116.67041 111.305176,119.77002 111.305176,124.284668 C111.305176,128.788086 109.395996,132 104.432129,132 L98.6933594,132 L98.6933594,116.67041 Z M101.950195,119.29834 L101.950195,129.37207 L103.960449,129.37207 C106.464844,129.37207 107.969727,128.103027 107.969727,124.352051 C107.969727,121.488281 107.060059,119.29834 103.960449,119.29834 L101.950195,119.29834 Z M116.954102,132 L113.697266,132 L113.697266,116.67041 L116.954102,116.67041 L116.954102,132 Z M123.14209,132 L120.121094,132 L120.121094,116.67041 L122.782715,116.67041 L129.375,126.508301 L129.487305,126.508301 L129.487305,116.67041 L132.508301,116.67041 L132.508301,132 L129.85791,132 L123.254395,122.094727 L123.14209,122.094727 L123.14209,132 Z M147.82666,121.623047 L144.659668,121.623047 C144.46875,120.01709 143.26709,119.084961 141.649902,119.084961 C139.718262,119.084961 138.336914,120.421387 138.336914,123.352539 L138.336914,125.228027 C138.336914,127.754883 139.280273,129.585449 141.683594,129.585449 C143.581543,129.585449 144.760742,128.39502 144.760742,126.935059 L144.760742,126.059082 L141.762207,126.059082 L141.762207,123.689453 L147.849121,123.689453 L147.849121,126.72168 C147.849121,129.192383 146.231934,132.291992 141.638672,132.291992 C137.067871,132.291992 135.057617,129.270996 135.057617,125.239258 L135.057617,123.330078 C135.057617,119.118652 137.51709,116.378418 141.694824,116.378418 C145.737793,116.378418 147.725586,118.961426 147.82666,121.623047 Z M158.169922,132 L154.913086,132 L154.913086,116.67041 L158.169922,116.67041 L158.169922,132 Z M164.35791,132 L161.336914,132 L161.336914,116.67041 L163.998535,116.67041 L170.59082,126.508301 L170.703125,126.508301 L170.703125,116.67041 L173.724121,116.67041 L173.724121,132 L171.07373,132 L164.470215,122.094727 L164.35791,122.094727 L164.35791,132 Z M180.147949,132 L176.891113,132 L176.891113,116.67041 L186.807617,116.67041 L186.807617,119.320801 L180.147949,119.320801 L180.147949,123.408691 L186.223633,123.408691 L186.223633,126.00293 L180.147949,126.00293 L180.147949,132 Z M191.681641,123.397461 L191.681641,125.351562 C191.681641,128.215332 193.074219,129.60791 195.02832,129.60791 C196.993652,129.60791 198.375,128.215332 198.375,125.351562 L198.375,123.397461 C198.375,120.544922 196.993652,119.0625 195.02832,119.0625 C193.074219,119.0625 191.681641,120.544922 191.681641,123.397461 Z M188.368652,125.340332 L188.368652,123.431152 C188.368652,119.07373 190.873047,116.378418 195.039551,116.378418 C199.217285,116.378418 201.687988,119.096191 201.687988,123.431152 L201.687988,125.340332 C201.687988,129.664062 199.194824,132.291992 195.01709,132.291992 C190.850586,132.291992 188.368652,129.664062 188.368652,125.340332 Z M212.008789,132 L208.751953,132 L208.751953,116.67041 L218.668457,116.67041 L218.668457,119.320801 L212.008789,119.320801 L212.008789,123.408691 L218.084473,123.408691 L218.084473,126.00293 L212.008789,126.00293 L212.008789,132 Z M223.54248,123.397461 L223.54248,125.351562 C223.54248,128.215332 224.935059,129.60791 226.88916,129.60791 C228.854492,129.60791 230.23584,128.215332 230.23584,125.351562 L230.23584,123.397461 C230.23584,120.544922 228.854492,119.0625 226.88916,119.0625 C224.935059,119.0625 223.54248,120.544922 223.54248,123.397461 Z M220.229492,125.340332 L220.229492,123.431152 C220.229492,119.07373 222.733887,116.378418 226.900391,116.378418 C231.078125,116.378418 233.548828,119.096191 233.548828,123.431152 L233.548828,125.340332 C233.548828,129.664062 231.055664,132.291992 226.87793,132.291992 C222.711426,132.291992 220.229492,129.664062 220.229492,125.340332 Z M242.342285,116.67041 C246.025879,116.67041 247.800293,118.804199 247.800293,121.566895 C247.800293,124.09375 246.149414,125.430176 245.026367,125.879395 L248.103516,132 L244.487305,132 L241.825684,126.362305 L239.298828,126.362305 L239.298828,132 L236.098145,132 L236.098145,116.67041 L242.342285,116.67041 Z M239.298828,123.970215 L241.825684,123.970215 C243.442871,123.970215 244.453613,123.161621 244.453613,121.623047 C244.453613,119.994629 243.353027,119.174805 241.870605,119.174805 L239.298828,119.174805 L239.298828,123.970215 Z M253.291992,132 L250.394531,132 L250.394531,116.67041 L253.71875,116.67041 L257.952637,126.171387 L258.053711,126.171387 L262.287598,116.67041 L265.589355,116.67041 L265.589355,132 L262.658203,132 L262.658203,122.072266 L262.523438,122.072266 L258.99707,129.956055 L256.964355,129.956055 L253.426758,122.072266 L253.291992,122.072266 L253.291992,132 Z" id="MAIL-SENDING-INFO-FO" fill="#C2C2C2"></path>
                <path d="M3.5,87.5 L104.5,87.5" id="Line" stroke="#D8D8D8" stroke-width="2" stroke-linecap="square"></path>
                <path d="M163.5,87.5 L264.5,87.5" id="Line-Copy" stroke="#D8D8D8" stroke-width="2" stroke-linecap="square"></path>
                <path d="M134,101 C126.268014,101 120,94.7319865 120,87 C120,79.2680135 126.268014,73 134,73 C141.731986,73 148,79.2680135 148,87 C148,94.7319865 141.731986,101 134,101 Z M127.113167,82 L127.113167,92 L140.886056,92 L140.886815,82 L127.113167,82 Z M134,87.1664 L130.111111,83.6664 L137.929139,83.6664 L134,87.1664 Z M131.083333,86.75 L128.734056,89.1664 L128.734056,84.6664 L131.083333,86.75 Z M132.298611,87.8336 L133.473639,88.875 C133.635423,89 133.797972,89.0836 134,89.0836 C134.202806,89.0836 134.364583,89.000006 134.526361,88.875 L135.579861,87.9164 L137.929139,90.3328 L129.868056,90.3335814 L132.298611,87.8336 Z M136.835389,86.8336 L139.265944,84.6672 L139.265944,89.3758 L136.835389,86.8336 Z" id="Combined-Shape" fill="#D8D8D8"></path>
                <path d="M47.684,15.844 L47.684,26.452 L42.588,26.452 L42.588,20.628 L9.412,20.628 L9.412,26.452 L4.316,26.452 L4.316,15.844 L23.088,15.844 C22.568,14.752 21.944,13.712 21.32,12.724 L27.04,11.788 C27.612,13.036 28.184,14.388 28.704,15.844 L47.684,15.844 Z M10.764,23.696 L24.128,23.696 L24.128,21.408 L29.12,21.408 L29.12,23.696 L41.236,23.696 L41.236,28.272 L27.716,28.272 C27.612,28.376 27.56,28.532 27.508,28.636 C32.916,29.676 37.804,30.924 42.224,32.328 L39.728,36.124 L49.244,36.124 L49.244,41.012 L41.236,41.012 L41.236,55.52 C41.236,58.744 39.416,60.408 35.88,60.408 L30.628,60.408 L29.64,56.04 L10.244,56.04 L10.244,43.248 L30.264,43.248 L30.264,55.416 C31.616,55.572 32.864,55.676 34.06,55.676 C35.308,55.676 35.932,55.156 35.932,54.22 L35.932,41.012 L2.808,41.012 L2.808,36.124 L10.088,36.124 L7.644,32.276 C13.988,31.392 18.252,30.3 20.488,29.052 C20.904,28.74 21.216,28.48 21.528,28.272 L10.764,28.272 L10.764,23.696 Z M24.18,32.12 C21.632,33.784 17.784,35.084 12.688,36.124 L38.116,36.124 C33.54,34.46 28.86,33.108 24.18,32.12 Z M25.22,51.464 L25.22,47.876 L15.288,47.876 L15.288,51.464 L25.22,51.464 Z M66.232,11.788 L71.328,14.232 C70.028,18.288 68.364,22.084 66.284,25.724 L66.284,60.408 L60.928,60.408 L60.928,33.628 C59.576,35.292 58.172,36.904 56.716,38.464 L54.896,32.64 C59.992,26.764 63.788,19.796 66.232,11.788 Z M75.02,15.74 L80.324,16.416 C79.96,18.6 79.492,20.732 78.92,22.76 L84.588,22.76 L84.588,12.516 L90.048,12.516 L90.048,22.76 L101.332,22.76 L101.332,28.064 L90.048,28.064 L90.048,38.724 L103.308,38.724 L103.308,43.976 L90.048,43.976 L90.048,60.252 L84.588,60.252 L84.588,43.976 L70.08,43.976 L70.08,38.724 L84.588,38.724 L84.588,28.064 L77.152,28.064 C75.852,31.288 74.292,34.252 72.472,36.904 L68.988,32.38 C71.952,27.856 73.98,22.292 75.02,15.74 Z M114.056,33.68 C112.808,35.344 111.508,36.904 110.156,38.464 L108.336,32.64 C113.016,26.712 116.552,19.744 118.84,11.736 L123.936,14.128 C122.792,18.028 121.284,21.72 119.412,25.256 L119.412,60.512 L114.056,60.512 L114.056,33.68 Z M122.74,18.34 L137.664,18.34 C136.988,16.676 136.26,15.116 135.48,13.556 L140.68,12.152 C141.72,14.388 142.5,16.468 143.02,18.34 L157.008,18.34 L157.008,23.436 L122.74,23.436 L122.74,18.34 Z M127.42,26.192 L152.64,26.192 L152.64,31.028 L127.42,31.028 L127.42,26.192 Z M127.42,33.524 L152.64,33.524 L152.64,38.412 L127.42,38.412 L127.42,33.524 Z M153.784,41.272 L153.784,60.408 L148.532,60.408 L148.532,57.808 L131.528,57.808 L131.528,60.408 L126.224,60.408 L126.224,41.272 L153.784,41.272 Z M131.528,52.66 L148.532,52.66 L148.532,46.316 L131.528,46.316 L131.528,52.66 Z M169.732,15.688 L181.224,15.688 C181.848,14.44 182.316,13.14 182.628,11.788 L188.348,12.568 C188.036,13.66 187.62,14.7 187.1,15.688 L203.324,15.688 L203.324,42.26 L169.732,42.26 L169.732,15.688 Z M198.072,37.684 L198.072,34.668 L174.984,34.668 L174.984,37.684 L198.072,37.684 Z M174.984,30.404 L198.072,30.404 L198.072,27.492 L174.984,27.492 L174.984,30.404 Z M174.984,23.228 L198.072,23.228 L198.072,20.316 L174.984,20.316 L174.984,23.228 Z M166.872,45.12 L171.968,46.16 C170.772,50.996 169.108,55.208 166.976,58.744 L162.4,55.78 C164.532,52.452 166.04,48.864 166.872,45.12 Z M193.132,59.628 L179.924,59.628 C176.284,59.628 174.464,57.86 174.464,54.428 L174.464,45.068 L179.976,45.068 L179.976,53.232 C179.976,54.272 180.444,54.844 181.484,54.844 L192.092,54.844 C192.924,54.844 193.548,54.532 193.964,54.012 C194.484,53.44 194.796,51.672 194.952,48.76 L200.152,50.476 C199.684,54.948 198.904,57.6 197.812,58.432 C196.772,59.212 195.212,59.628 193.132,59.628 Z M186.944,42.936 C189.336,45.536 191.26,47.772 192.612,49.696 L188.504,52.504 C187.152,50.424 185.28,48.032 182.94,45.432 L186.944,42.936 Z M203.48,43.976 C206.496,48.032 208.784,51.568 210.448,54.584 L206.08,57.6 C204.416,54.324 202.128,50.684 199.216,46.628 L203.48,43.976 Z M221.092,20.004 L231.492,20.004 C230.036,17.872 228.528,15.948 226.968,14.232 L231.492,12.048 C233.26,13.972 234.924,16.104 236.484,18.444 L233.416,20.004 L243.504,20.004 C245.116,17.404 246.52,14.7 247.716,11.788 L252.968,13.66 C251.824,16 250.524,18.132 249.172,20.004 L258.428,20.004 L258.428,42.624 L242.464,42.624 L242.464,46.472 L263.056,46.472 L263.056,51.568 L242.464,51.568 L242.464,60.668 L237.056,60.668 L237.056,51.568 L216.464,51.568 L216.464,46.472 L237.056,46.472 L237.056,42.624 L221.092,42.624 L221.092,20.004 Z M253.176,37.84 L253.176,33.524 L242.464,33.524 L242.464,37.84 L253.176,37.84 Z M237.056,37.84 L237.056,33.524 L226.344,33.524 L226.344,37.84 L237.056,37.84 Z M226.344,28.948 L237.056,28.948 L237.056,24.736 L226.344,24.736 L226.344,28.948 Z M242.464,24.736 L242.464,28.948 L253.176,28.948 L253.176,24.736 L242.464,24.736 Z" id="寄件信息单" fill="#C2C2C2"></path>
            </g>
        </g>
    </g>
</svg>