<?xml version="1.0" encoding="UTF-8"?>
<svg width="265px" height="122px" viewBox="0 0 265 122" version="1.1" xmlns="http://www.w3.org/2000/svg" xmlns:xlink="http://www.w3.org/1999/xlink">
    <!-- Generator: Sketch 50.2 (55047) - http://www.bohemiancoding.com/sketch -->
    <title>Group Copy</title>
    <desc>Created with Sketch.</desc>
    <defs></defs>
    <g id="Wireframe-&amp;-UI" stroke="none" stroke-width="1" fill="none" fill-rule="evenodd">
        <g id="Group-Copy" transform="translate(-1.000000, -11.000000)">
            <path d="M4.51464844,132 L1.6171875,132 L1.6171875,116.67041 L4.94140625,116.67041 L9.17529297,126.171387 L9.27636719,126.171387 L13.5102539,116.67041 L16.8120117,116.67041 L16.8120117,132 L13.8808594,132 L13.8808594,122.072266 L13.7460938,122.072266 L10.2197266,129.956055 L8.18701172,129.956055 L4.64941406,122.072266 L4.51464844,122.072266 L4.51464844,132 Z M21.8208008,132 L18.5751953,132 L23.6513672,116.67041 L27.503418,116.67041 L32.5571289,132 L29.0869141,132 L27.9526367,128.192871 L22.9663086,128.192871 L21.8208008,132 Z M25.5493164,119.725098 L25.4033203,119.725098 L23.6064453,125.800781 L27.3237305,125.800781 L25.5493164,119.725098 Z M37.5546875,132 L34.2978516,132 L34.2978516,116.67041 L37.5546875,116.67041 L37.5546875,132 Z M50.3686523,129.248535 L50.3686523,132 L40.7216797,132 L40.7216797,116.67041 L43.9785156,116.67041 L43.9785156,129.248535 L50.3686523,129.248535 Z M55.8266602,127.597656 L58.9487305,127.597656 C59.0385742,128.731934 60.0605469,129.742676 62.003418,129.742676 C63.8115234,129.742676 64.7773438,128.934082 64.7773438,127.743652 C64.7773438,126.699219 63.9912109,126.193848 62.4414062,125.845703 L60.1391602,125.317871 C57.9829102,124.857422 56.1860352,123.644531 56.1860352,121.039062 C56.1860352,118.029297 58.746582,116.355957 61.9921875,116.355957 C65.4174805,116.355957 67.7197266,118.242676 67.753418,120.949219 L64.7211914,120.949219 C64.6425781,119.871094 63.7553711,118.871582 61.980957,118.871582 C60.4086914,118.871582 59.4316406,119.612793 59.4316406,120.791992 C59.4316406,121.679199 60.1503906,122.274414 61.5205078,122.555176 L63.8452148,123.071777 C66.0913086,123.554688 67.9892578,124.644043 67.9892578,127.429199 C67.9892578,130.438965 65.6420898,132.291992 61.8461914,132.291992 C57.331543,132.291992 55.871582,129.765137 55.8266602,127.597656 Z M80.4213867,129.37207 L80.4213867,132 L70.4150391,132 L70.4150391,116.67041 L80.4213867,116.67041 L80.4213867,119.29834 L73.6381836,119.29834 L73.6381836,123.026855 L80.0170898,123.026855 L80.0170898,125.475098 L73.6381836,125.475098 L73.6381836,129.37207 L80.4213867,129.37207 Z M86.1601562,132 L83.1391602,132 L83.1391602,116.67041 L85.8007812,116.67041 L92.3930664,126.508301 L92.5053711,126.508301 L92.5053711,116.67041 L95.5263672,116.67041 L95.5263672,132 L92.8759766,132 L86.2724609,122.094727 L86.1601562,122.094727 L86.1601562,132 Z M98.6933594,116.67041 L104.432129,116.67041 C109.384766,116.67041 111.305176,119.77002 111.305176,124.284668 C111.305176,128.788086 109.395996,132 104.432129,132 L98.6933594,132 L98.6933594,116.67041 Z M101.950195,119.29834 L101.950195,129.37207 L103.960449,129.37207 C106.464844,129.37207 107.969727,128.103027 107.969727,124.352051 C107.969727,121.488281 107.060059,119.29834 103.960449,119.29834 L101.950195,119.29834 Z M116.954102,132 L113.697266,132 L113.697266,116.67041 L116.954102,116.67041 L116.954102,132 Z M123.14209,132 L120.121094,132 L120.121094,116.67041 L122.782715,116.67041 L129.375,126.508301 L129.487305,126.508301 L129.487305,116.67041 L132.508301,116.67041 L132.508301,132 L129.85791,132 L123.254395,122.094727 L123.14209,122.094727 L123.14209,132 Z M147.82666,121.623047 L144.659668,121.623047 C144.46875,120.01709 143.26709,119.084961 141.649902,119.084961 C139.718262,119.084961 138.336914,120.421387 138.336914,123.352539 L138.336914,125.228027 C138.336914,127.754883 139.280273,129.585449 141.683594,129.585449 C143.581543,129.585449 144.760742,128.39502 144.760742,126.935059 L144.760742,126.059082 L141.762207,126.059082 L141.762207,123.689453 L147.849121,123.689453 L147.849121,126.72168 C147.849121,129.192383 146.231934,132.291992 141.638672,132.291992 C137.067871,132.291992 135.057617,129.270996 135.057617,125.239258 L135.057617,123.330078 C135.057617,119.118652 137.51709,116.378418 141.694824,116.378418 C145.737793,116.378418 147.725586,118.961426 147.82666,121.623047 Z M158.169922,132 L154.913086,132 L154.913086,116.67041 L158.169922,116.67041 L158.169922,132 Z M164.35791,132 L161.336914,132 L161.336914,116.67041 L163.998535,116.67041 L170.59082,126.508301 L170.703125,126.508301 L170.703125,116.67041 L173.724121,116.67041 L173.724121,132 L171.07373,132 L164.470215,122.094727 L164.35791,122.094727 L164.35791,132 Z M180.147949,132 L176.891113,132 L176.891113,116.67041 L186.807617,116.67041 L186.807617,119.320801 L180.147949,119.320801 L180.147949,123.408691 L186.223633,123.408691 L186.223633,126.00293 L180.147949,126.00293 L180.147949,132 Z M191.681641,123.397461 L191.681641,125.351562 C191.681641,128.215332 193.074219,129.60791 195.02832,129.60791 C196.993652,129.60791 198.375,128.215332 198.375,125.351562 L198.375,123.397461 C198.375,120.544922 196.993652,119.0625 195.02832,119.0625 C193.074219,119.0625 191.681641,120.544922 191.681641,123.397461 Z M188.368652,125.340332 L188.368652,123.431152 C188.368652,119.07373 190.873047,116.378418 195.039551,116.378418 C199.217285,116.378418 201.687988,119.096191 201.687988,123.431152 L201.687988,125.340332 C201.687988,129.664062 199.194824,132.291992 195.01709,132.291992 C190.850586,132.291992 188.368652,129.664062 188.368652,125.340332 Z M212.008789,132 L208.751953,132 L208.751953,116.67041 L218.668457,116.67041 L218.668457,119.320801 L212.008789,119.320801 L212.008789,123.408691 L218.084473,123.408691 L218.084473,126.00293 L212.008789,126.00293 L212.008789,132 Z M223.54248,123.397461 L223.54248,125.351562 C223.54248,128.215332 224.935059,129.60791 226.88916,129.60791 C228.854492,129.60791 230.23584,128.215332 230.23584,125.351562 L230.23584,123.397461 C230.23584,120.544922 228.854492,119.0625 226.88916,119.0625 C224.935059,119.0625 223.54248,120.544922 223.54248,123.397461 Z M220.229492,125.340332 L220.229492,123.431152 C220.229492,119.07373 222.733887,116.378418 226.900391,116.378418 C231.078125,116.378418 233.548828,119.096191 233.548828,123.431152 L233.548828,125.340332 C233.548828,129.664062 231.055664,132.291992 226.87793,132.291992 C222.711426,132.291992 220.229492,129.664062 220.229492,125.340332 Z M242.342285,116.67041 C246.025879,116.67041 247.800293,118.804199 247.800293,121.566895 C247.800293,124.09375 246.149414,125.430176 245.026367,125.879395 L248.103516,132 L244.487305,132 L241.825684,126.362305 L239.298828,126.362305 L239.298828,132 L236.098145,132 L236.098145,116.67041 L242.342285,116.67041 Z M239.298828,123.970215 L241.825684,123.970215 C243.442871,123.970215 244.453613,123.161621 244.453613,121.623047 C244.453613,119.994629 243.353027,119.174805 241.870605,119.174805 L239.298828,119.174805 L239.298828,123.970215 Z M253.291992,132 L250.394531,132 L250.394531,116.67041 L253.71875,116.67041 L257.952637,126.171387 L258.053711,126.171387 L262.287598,116.67041 L265.589355,116.67041 L265.589355,132 L262.658203,132 L262.658203,122.072266 L262.523438,122.072266 L258.99707,129.956055 L256.964355,129.956055 L253.426758,122.072266 L253.291992,122.072266 L253.291992,132 Z" id="MAIL-SENDING-INFO-FO" fill="#C2C2C2"></path>
            <path d="M3.5,87.5 L104.5,87.5" id="Line" stroke="#D8D8D8" stroke-width="2" stroke-linecap="square"></path>
            <path d="M163.5,87.5 L264.5,87.5" id="Line-Copy" stroke="#D8D8D8" stroke-width="2" stroke-linecap="square"></path>
            <path d="M134,101 C126.268014,101 120,94.7319865 120,87 C120,79.2680135 126.268014,73 134,73 C141.731986,73 148,79.2680135 148,87 C148,94.7319865 141.731986,101 134,101 Z M140.591711,93.5917728 L140.591773,93.5917106 C141.136076,93.0474388 141.136076,92.161127 140.591773,91.6168241 L138.025773,89.0508246 C138.570076,88.1335964 138.896907,87.0759069 138.896907,85.9405221 C138.896907,82.6596196 136.222202,80 132.940522,80 C129.65962,80 127,82.6437571 127,85.9405221 C127,89.2372872 129.659464,91.8969068 132.940522,91.8969068 C134.091645,91.8969068 135.148712,91.5858766 136.050825,91.0257733 L138.616824,93.5917728 C139.161096,94.1360757 140.047408,94.1360757 140.591711,93.5917728 Z M132.940522,82.0995163 L132.940678,82.0995163 C135.071079,82.0995163 136.813315,83.8101827 136.813315,85.9405843 C136.813315,88.070986 135.086786,89.7975149 132.956385,89.7975149 C130.825983,89.7975149 129.099454,88.055901 129.099454,85.9405843 C129.099454,83.8260452 130.825828,82.0995163 132.940522,82.0995163 Z" id="Combined-Shape" fill="#D8D8D8"></path>
            <path d="M25.324,12.152 L30.42,13.504 C29.9,15.844 29.38,18.028 28.808,20.108 L48.464,20.108 C48.464,38.204 48.204,49.332 47.684,53.492 C47.06,57.964 44.096,60.2 38.792,60.2 C38.064,60.2 36.712,60.096 34.84,59.94 L33.592,55.104 C35.256,55.26 36.66,55.364 37.908,55.364 C40.664,55.364 42.276,53.908 42.692,51.048 C43.004,48.604 43.16,40.024 43.264,25.308 L41.392,25.308 C40.3,33.628 38.792,40.284 36.816,45.172 C34.424,50.684 30.836,55.676 26.156,60.044 L22.776,55.728 C27.04,51.88 30.212,47.616 32.344,42.832 C34.164,38.412 35.568,32.588 36.556,25.308 L33.956,25.308 C31.772,36.332 27.872,44.444 22.204,49.54 L18.72,45.484 C23.712,41.22 27.196,34.512 29.12,25.308 L26.936,25.308 C25.636,28.376 24.128,30.976 22.412,33.056 L18.46,29.676 C21.684,25.62 23.972,19.744 25.324,12.152 Z M7.852,27.804 C7.436,30.248 6.968,32.64 6.396,34.928 L1.612,33.576 C3.016,28.116 3.796,22.344 4.004,16.312 L8.84,16.676 C8.736,18.652 8.632,20.628 8.476,22.604 L10.712,22.604 L10.712,12.36 L16.016,12.36 L16.016,22.604 L19.552,22.604 L19.552,27.804 L16.016,27.804 L16.016,38.204 C17.108,37.684 18.2,37.164 19.344,36.644 L19.344,41.74 C18.2,42.26 17.108,42.728 16.016,43.248 L16.016,60.408 L10.712,60.408 L10.712,45.38 C8.372,46.212 5.98,47.044 3.536,47.772 L2.236,42.52 C5.096,41.948 7.904,41.168 10.712,40.232 L10.712,27.804 L7.852,27.804 Z M71.016,34.98 L69.82,30.404 C70.288,30.248 70.652,30.092 70.912,29.936 C72.628,28.896 74.812,26.192 77.464,21.876 L69.664,21.876 L69.664,16.988 L83.34,16.988 C82.716,15.428 82.092,13.972 81.416,12.62 L86.928,11.684 C87.552,13.244 88.228,15.012 88.852,16.988 L102.008,16.988 L102.008,21.876 L83.08,21.876 C81.156,25.308 79.44,27.96 77.932,29.832 C82.82,29.52 87.76,29.052 92.648,28.48 C91.712,27.232 90.776,26.036 89.84,24.892 L94.208,22.188 C97.848,26.452 100.604,30.196 102.528,33.42 L98.004,36.54 C97.276,35.344 96.548,34.096 95.716,32.848 C88.124,33.68 79.856,34.408 71.016,34.98 Z M60.876,12.672 C63.996,14.856 66.7,17.092 68.884,19.328 L65.036,23.176 C63.164,21.096 60.46,18.808 56.976,16.416 L60.876,12.672 Z M59.628,25.1 C62.852,27.596 65.608,30.144 67.792,32.64 L63.944,36.488 C62.02,34.148 59.316,31.6 55.78,28.844 L59.628,25.1 Z M63.424,39.192 L68.208,41.064 C66.232,47.668 64.048,53.908 61.656,59.732 L56.664,57.496 C59.264,51.568 61.552,45.432 63.424,39.192 Z M81,36.488 L86.512,36.488 L86.512,59.368 L81,59.368 L81,36.488 Z M72.472,36.488 L77.776,36.488 C77.568,43.352 76.892,48.396 75.748,51.62 C74.5,54.948 72.368,57.912 69.404,60.408 L65.972,56.04 C68.26,54.116 69.924,51.828 70.86,49.176 C71.744,46.68 72.264,42.416 72.472,36.488 Z M98.316,59.94 L96.184,59.94 C92.44,59.94 90.568,58.328 90.568,55.156 L90.568,36.488 L95.716,36.488 L95.716,54.064 C95.716,54.584 95.924,54.896 96.34,55 L98.056,55 C98.68,54.896 98.992,54.168 99.044,52.816 C99.148,51.412 99.2,49.488 99.2,47.096 L103.932,48.864 C103.932,53.908 103.568,56.976 102.84,58.068 C102.164,59.108 100.656,59.732 98.316,59.94 Z M116.916,31.496 L149.052,31.496 L149.052,51.412 L116.916,51.412 L116.916,31.496 Z M143.748,46.628 L143.748,43.82 L122.22,43.82 L122.22,46.628 L143.748,46.628 Z M122.22,39.244 L143.748,39.244 L143.748,36.28 L122.22,36.28 L122.22,39.244 Z M111.404,16.416 L130.332,16.416 L130.332,12.204 L135.636,12.204 L135.636,16.416 L154.564,16.416 L154.564,21.408 L140.368,21.408 C144.216,24.32 149.676,26.66 156.852,28.428 L154.512,33.316 C145.828,30.352 139.536,26.504 135.636,21.772 L135.636,29.988 L130.332,29.988 L130.332,21.772 C126.224,26.4 120.036,30.248 111.768,33.316 L108.804,28.532 C116.188,26.556 121.804,24.216 125.704,21.408 L111.404,21.408 L111.404,16.416 Z M110.364,54.116 L155.448,54.116 L155.448,59.056 L110.364,59.056 L110.364,54.116 Z M181.848,29.52 C181.276,30.144 180.704,30.716 180.08,31.34 L176.7,27.024 C180.86,22.968 183.668,17.976 185.124,12.048 L190.584,12.88 C190.168,14.44 189.7,15.948 189.18,17.404 L208.94,17.404 C208.94,37.32 208.68,49.592 208.16,54.272 C207.64,58.12 205.092,60.096 200.62,60.096 C199.58,60.096 197.812,59.992 195.316,59.836 L194.016,55 C196.252,55.156 198.176,55.26 199.788,55.26 C201.608,55.26 202.648,54.064 202.96,51.776 C203.272,48.968 203.428,39.244 203.532,22.552 L186.84,22.552 C185.904,24.268 184.812,25.88 183.616,27.44 L198.696,27.44 L198.696,52.192 L181.848,52.192 L181.848,29.52 Z M193.652,47.616 L193.652,42 L187.048,42 L187.048,47.616 L193.652,47.616 Z M187.048,37.58 L193.652,37.58 L193.652,32.068 L187.048,32.068 L187.048,37.58 Z M169.576,12.62 C172.852,15.168 175.66,17.716 177.948,20.212 L174.256,24.008 C172.28,21.616 169.42,19.068 165.728,16.364 L169.576,12.62 Z M162.192,27.648 L174.568,27.648 L174.568,49.02 C175.868,47.824 177.272,46.472 178.728,45.016 L180.236,50.684 C177.012,53.804 173.632,56.56 170.044,59.004 L167.964,54.116 C168.848,53.336 169.316,52.4 169.316,51.256 L169.316,32.848 L162.192,32.848 L162.192,27.648 Z M221.092,20.004 L231.492,20.004 C230.036,17.872 228.528,15.948 226.968,14.232 L231.492,12.048 C233.26,13.972 234.924,16.104 236.484,18.444 L233.416,20.004 L243.504,20.004 C245.116,17.404 246.52,14.7 247.716,11.788 L252.968,13.66 C251.824,16 250.524,18.132 249.172,20.004 L258.428,20.004 L258.428,42.624 L242.464,42.624 L242.464,46.472 L263.056,46.472 L263.056,51.568 L242.464,51.568 L242.464,60.668 L237.056,60.668 L237.056,51.568 L216.464,51.568 L216.464,46.472 L237.056,46.472 L237.056,42.624 L221.092,42.624 L221.092,20.004 Z M253.176,37.84 L253.176,33.524 L242.464,33.524 L242.464,37.84 L253.176,37.84 Z M237.056,37.84 L237.056,33.524 L226.344,33.524 L226.344,37.84 L237.056,37.84 Z M226.344,28.948 L237.056,28.948 L237.056,24.736 L226.344,24.736 L226.344,28.948 Z M242.464,24.736 L242.464,28.948 L253.176,28.948 L253.176,24.736 L242.464,24.736 Z" id="物流查询单" fill="#C2C2C2"></path>
        </g>
    </g>
</svg>