<?xml version="1.0" encoding="UTF-8"?>
<svg width="265px" height="123px" viewBox="0 0 265 123" version="1.1" xmlns="http://www.w3.org/2000/svg" xmlns:xlink="http://www.w3.org/1999/xlink">
    <!-- Generator: Sketch 50.2 (55047) - http://www.bohemiancoding.com/sketch -->
    <title>Group</title>
    <desc>Created with Sketch.</desc>
    <defs></defs>
    <g id="Wireframe-&amp;-UI" stroke="none" stroke-width="1" fill="none" fill-rule="evenodd">
        <g id="我的_根据运单号查询-UI" transform="translate(-55.000000, -218.000000)">
            <g id="Group" transform="translate(54.000000, 207.000000)">
                <text id="MAIL-TRACKING-QUERY" font-family="SFCompactDisplay-Bold, SF Compact Display" font-size="20" font-style="condensed" font-weight="bold" fill="#C2C2C2">
                    <tspan x="3" y="132">MAIL TRACKING QUERY FORM</tspan>
                </text>
                <path d="M3.5,87.5 L104.5,87.5" id="Line" stroke="#D8D8D8" stroke-width="2" stroke-linecap="square"></path>
                <path d="M163.5,87.5 L264.5,87.5" id="Line-Copy" stroke="#D8D8D8" stroke-width="2" stroke-linecap="square"></path>
                <path d="M134,101 C126.268014,101 120,94.7319865 120,87 C120,79.2680135 126.268014,73 134,73 C141.731986,73 148,79.2680135 148,87 C148,94.7319865 141.731986,101 134,101 Z M139.791044,91.8170119 L136.174178,88.1995993 C136.730465,87.4692052 137.043501,86.530127 137.043501,85.5212649 C137.043501,83.0170564 135.026377,81 132.522084,81 C130.017792,81 128,83.0177242 128,85.5219327 C128,88.0261412 130.017124,90.0431976 132.521417,90.0431976 C133.530313,90.0431976 134.434195,89.7301715 135.199841,89.1739034 L138.817375,92.791316 C138.956285,92.9302211 139.130412,93 139.304543,93 C139.478675,93 139.652139,92.9302211 139.791712,92.791316 C140.069538,92.512848 140.069538,92.0954799 139.79106,91.8170286 L139.791044,91.8170119 Z M132.522084,88.6521933 C130.78277,88.6521933 129.391719,87.2611889 129.391719,85.5219327 C129.391719,83.7826764 130.78277,82.3916721 132.522084,82.3916721 C134.261399,82.3916721 135.65245,83.7826764 135.65245,85.5219327 C135.65245,87.2605212 134.260748,88.6521933 132.522084,88.6521933 Z" id="Combined-Shape" fill="#D8D8D8"></path>
                <text id="物流查询单" font-family="PingFangSC-Semibold, PingFang SC" font-size="52" font-weight="500" letter-spacing="1.44000018" fill="#C2C2C2">
                    <tspan x="0" y="55">物流查询单</tspan>
                </text>
            </g>
        </g>
    </g>
</svg>