<?xml version="1.0" encoding="UTF-8"?>
<svg width="265px" height="122px" viewBox="0 0 265 122" version="1.1" xmlns="http://www.w3.org/2000/svg" xmlns:xlink="http://www.w3.org/1999/xlink">
    <!-- Generator: Sketch 50.2 (55047) - http://www.bohemiancoding.com/sketch -->
    <title>Group Copy</title>
    <desc>Created with Sketch.</desc>
    <defs></defs>
    <g id="Wireframe-&amp;-UI" stroke="none" stroke-width="1" fill="none" fill-rule="evenodd">
        <g id="Group-Copy" transform="translate(-1.000000, -11.000000)">
            <path d="M4.51464844,132 L1.6171875,132 L1.6171875,116.67041 L4.94140625,116.67041 L9.17529297,126.171387 L9.27636719,126.171387 L13.5102539,116.67041 L16.8120117,116.67041 L16.8120117,132 L13.8808594,132 L13.8808594,122.072266 L13.7460938,122.072266 L10.2197266,129.956055 L8.18701172,129.956055 L4.64941406,122.072266 L4.51464844,122.072266 L4.51464844,132 Z M21.8208008,132 L18.5751953,132 L23.6513672,116.67041 L27.503418,116.67041 L32.5571289,132 L29.0869141,132 L27.9526367,128.192871 L22.9663086,128.192871 L21.8208008,132 Z M25.5493164,119.725098 L25.4033203,119.725098 L23.6064453,125.800781 L27.3237305,125.800781 L25.5493164,119.725098 Z M37.5546875,132 L34.2978516,132 L34.2978516,116.67041 L37.5546875,116.67041 L37.5546875,132 Z M50.3686523,129.248535 L50.3686523,132 L40.7216797,132 L40.7216797,116.67041 L43.9785156,116.67041 L43.9785156,129.248535 L50.3686523,129.248535 Z M55.8266602,127.597656 L58.9487305,127.597656 C59.0385742,128.731934 60.0605469,129.742676 62.003418,129.742676 C63.8115234,129.742676 64.7773438,128.934082 64.7773438,127.743652 C64.7773438,126.699219 63.9912109,126.193848 62.4414062,125.845703 L60.1391602,125.317871 C57.9829102,124.857422 56.1860352,123.644531 56.1860352,121.039062 C56.1860352,118.029297 58.746582,116.355957 61.9921875,116.355957 C65.4174805,116.355957 67.7197266,118.242676 67.753418,120.949219 L64.7211914,120.949219 C64.6425781,119.871094 63.7553711,118.871582 61.980957,118.871582 C60.4086914,118.871582 59.4316406,119.612793 59.4316406,120.791992 C59.4316406,121.679199 60.1503906,122.274414 61.5205078,122.555176 L63.8452148,123.071777 C66.0913086,123.554688 67.9892578,124.644043 67.9892578,127.429199 C67.9892578,130.438965 65.6420898,132.291992 61.8461914,132.291992 C57.331543,132.291992 55.871582,129.765137 55.8266602,127.597656 Z M80.4213867,129.37207 L80.4213867,132 L70.4150391,132 L70.4150391,116.67041 L80.4213867,116.67041 L80.4213867,119.29834 L73.6381836,119.29834 L73.6381836,123.026855 L80.0170898,123.026855 L80.0170898,125.475098 L73.6381836,125.475098 L73.6381836,129.37207 L80.4213867,129.37207 Z M86.1601562,132 L83.1391602,132 L83.1391602,116.67041 L85.8007812,116.67041 L92.3930664,126.508301 L92.5053711,126.508301 L92.5053711,116.67041 L95.5263672,116.67041 L95.5263672,132 L92.8759766,132 L86.2724609,122.094727 L86.1601562,122.094727 L86.1601562,132 Z M98.6933594,116.67041 L104.432129,116.67041 C109.384766,116.67041 111.305176,119.77002 111.305176,124.284668 C111.305176,128.788086 109.395996,132 104.432129,132 L98.6933594,132 L98.6933594,116.67041 Z M101.950195,119.29834 L101.950195,129.37207 L103.960449,129.37207 C106.464844,129.37207 107.969727,128.103027 107.969727,124.352051 C107.969727,121.488281 107.060059,119.29834 103.960449,119.29834 L101.950195,119.29834 Z M116.954102,132 L113.697266,132 L113.697266,116.67041 L116.954102,116.67041 L116.954102,132 Z M123.14209,132 L120.121094,132 L120.121094,116.67041 L122.782715,116.67041 L129.375,126.508301 L129.487305,126.508301 L129.487305,116.67041 L132.508301,116.67041 L132.508301,132 L129.85791,132 L123.254395,122.094727 L123.14209,122.094727 L123.14209,132 Z M147.82666,121.623047 L144.659668,121.623047 C144.46875,120.01709 143.26709,119.084961 141.649902,119.084961 C139.718262,119.084961 138.336914,120.421387 138.336914,123.352539 L138.336914,125.228027 C138.336914,127.754883 139.280273,129.585449 141.683594,129.585449 C143.581543,129.585449 144.760742,128.39502 144.760742,126.935059 L144.760742,126.059082 L141.762207,126.059082 L141.762207,123.689453 L147.849121,123.689453 L147.849121,126.72168 C147.849121,129.192383 146.231934,132.291992 141.638672,132.291992 C137.067871,132.291992 135.057617,129.270996 135.057617,125.239258 L135.057617,123.330078 C135.057617,119.118652 137.51709,116.378418 141.694824,116.378418 C145.737793,116.378418 147.725586,118.961426 147.82666,121.623047 Z M158.169922,132 L154.913086,132 L154.913086,116.67041 L158.169922,116.67041 L158.169922,132 Z M164.35791,132 L161.336914,132 L161.336914,116.67041 L163.998535,116.67041 L170.59082,126.508301 L170.703125,126.508301 L170.703125,116.67041 L173.724121,116.67041 L173.724121,132 L171.07373,132 L164.470215,122.094727 L164.35791,122.094727 L164.35791,132 Z M180.147949,132 L176.891113,132 L176.891113,116.67041 L186.807617,116.67041 L186.807617,119.320801 L180.147949,119.320801 L180.147949,123.408691 L186.223633,123.408691 L186.223633,126.00293 L180.147949,126.00293 L180.147949,132 Z M191.681641,123.397461 L191.681641,125.351562 C191.681641,128.215332 193.074219,129.60791 195.02832,129.60791 C196.993652,129.60791 198.375,128.215332 198.375,125.351562 L198.375,123.397461 C198.375,120.544922 196.993652,119.0625 195.02832,119.0625 C193.074219,119.0625 191.681641,120.544922 191.681641,123.397461 Z M188.368652,125.340332 L188.368652,123.431152 C188.368652,119.07373 190.873047,116.378418 195.039551,116.378418 C199.217285,116.378418 201.687988,119.096191 201.687988,123.431152 L201.687988,125.340332 C201.687988,129.664062 199.194824,132.291992 195.01709,132.291992 C190.850586,132.291992 188.368652,129.664062 188.368652,125.340332 Z M212.008789,132 L208.751953,132 L208.751953,116.67041 L218.668457,116.67041 L218.668457,119.320801 L212.008789,119.320801 L212.008789,123.408691 L218.084473,123.408691 L218.084473,126.00293 L212.008789,126.00293 L212.008789,132 Z M223.54248,123.397461 L223.54248,125.351562 C223.54248,128.215332 224.935059,129.60791 226.88916,129.60791 C228.854492,129.60791 230.23584,128.215332 230.23584,125.351562 L230.23584,123.397461 C230.23584,120.544922 228.854492,119.0625 226.88916,119.0625 C224.935059,119.0625 223.54248,120.544922 223.54248,123.397461 Z M220.229492,125.340332 L220.229492,123.431152 C220.229492,119.07373 222.733887,116.378418 226.900391,116.378418 C231.078125,116.378418 233.548828,119.096191 233.548828,123.431152 L233.548828,125.340332 C233.548828,129.664062 231.055664,132.291992 226.87793,132.291992 C222.711426,132.291992 220.229492,129.664062 220.229492,125.340332 Z M242.342285,116.67041 C246.025879,116.67041 247.800293,118.804199 247.800293,121.566895 C247.800293,124.09375 246.149414,125.430176 245.026367,125.879395 L248.103516,132 L244.487305,132 L241.825684,126.362305 L239.298828,126.362305 L239.298828,132 L236.098145,132 L236.098145,116.67041 L242.342285,116.67041 Z M239.298828,123.970215 L241.825684,123.970215 C243.442871,123.970215 244.453613,123.161621 244.453613,121.623047 C244.453613,119.994629 243.353027,119.174805 241.870605,119.174805 L239.298828,119.174805 L239.298828,123.970215 Z M253.291992,132 L250.394531,132 L250.394531,116.67041 L253.71875,116.67041 L257.952637,126.171387 L258.053711,126.171387 L262.287598,116.67041 L265.589355,116.67041 L265.589355,132 L262.658203,132 L262.658203,122.072266 L262.523438,122.072266 L258.99707,129.956055 L256.964355,129.956055 L253.426758,122.072266 L253.291992,122.072266 L253.291992,132 Z" id="MAIL-SENDING-INFO-FO" fill="#C2C2C2"></path>
            <path d="M3.5,87.5 L104.5,87.5" id="Line" stroke="#D8D8D8" stroke-width="2" stroke-linecap="square"></path>
            <path d="M163.5,87.5 L264.5,87.5" id="Line-Copy" stroke="#D8D8D8" stroke-width="2" stroke-linecap="square"></path>
            <path d="M134,101 C126.268014,101 120,94.7319865 120,87 C120,79.2680135 126.268014,73 134,73 C141.731986,73 148,79.2680135 148,87 C148,94.7319865 141.731986,101 134,101 Z M140.591711,93.5917728 L140.591773,93.5917106 C141.136076,93.0474388 141.136076,92.161127 140.591773,91.6168241 L138.025773,89.0508246 C138.570076,88.1335964 138.896907,87.0759069 138.896907,85.9405221 C138.896907,82.6596196 136.222202,80 132.940522,80 C129.65962,80 127,82.6437571 127,85.9405221 C127,89.2372872 129.659464,91.8969068 132.940522,91.8969068 C134.091645,91.8969068 135.148712,91.5858766 136.050825,91.0257733 L138.616824,93.5917728 C139.161096,94.1360757 140.047408,94.1360757 140.591711,93.5917728 Z M132.940522,82.0995163 L132.940678,82.0995163 C135.071079,82.0995163 136.813315,83.8101827 136.813315,85.9405843 C136.813315,88.070986 135.086786,89.7975149 132.956385,89.7975149 C130.825983,89.7975149 129.099454,88.055901 129.099454,85.9405843 C129.099454,83.8260452 130.825828,82.0995163 132.940522,82.0995163 Z" id="Combined-Shape" fill="#D8D8D8"></path>
            <text id="物流查询单" font-family="PingFangSC-Semibold, PingFang SC" font-size="52" font-weight="500" letter-spacing="1.44000018" fill="#C2C2C2">
                <tspan x="0" y="55">物流查询单</tspan>
            </text>
        </g>
    </g>
</svg>