<?xml version="1.0" encoding="UTF-8"?>
<svg width="60px" height="82px" viewBox="0 0 60 82" version="1.1" xmlns="http://www.w3.org/2000/svg" xmlns:xlink="http://www.w3.org/1999/xlink">
    <!-- Generator: Sketch 50.2 (55047) - http://www.bohemiancoding.com/sketch -->
    <title>Shape</title>
    <desc>Created with Sketch.</desc>
    <defs></defs>
    <g id="Wireframe" stroke="none" stroke-width="1" fill="none" fill-rule="evenodd">
        <g id="信箱_取件-copy" transform="translate(-158.000000, -141.000000)" fill="#1562B3" fill-rule="nonzero">
            <path d="M187.656,141.5897 L158,151.1835 L158,188.3675 C158,198.8675 163.4609,208.0865 171.695,213.3555 L171.644219,213.3555 L187.656219,223 L203.668219,213.3555 L203.617438,213.3555 C211.851838,208.086 217.312438,198.8675 217.312438,188.3675 L217.312438,151.1835 L187.656,141.5897 Z M187.656,164.5037 C192.5857,164.5037 196.5818,168.4998 196.5818,173.4295 C196.5818,178.3592 192.5857,182.3553 187.656,182.3553 C182.7263,182.3553 178.7302,178.3592 178.7302,173.4295 C178.7302,168.4998 182.7263,164.5037 187.656,164.5037 Z M172.324,200.0857 C172.324,191.6169 179.1873,184.7537 187.656,184.7537 C196.1247,184.7537 202.988,191.617 202.988,200.0857 L172.324,200.0857 Z" id="Shape"></path>
        </g>
    </g>
</svg>