<?xml version="1.0" encoding="UTF-8"?>
<svg fill="#0D55A1" width="100pt" height="100pt" version="1.1" viewBox="0 0 100 100" xmlns="http://www.w3.org/2000/svg">
 <g>
  <path d="m40.828 55.879c-3.7812 0-6.6211 3.0898-6.3516 6.8789 0.26953 3.7891 3.5781 6.8789 7.3789 6.8789 3.7891 0 6.6406-3.0898 6.3516-6.8789-0.28516-3.7891-3.6055-6.8789-7.3789-6.8789zm0.74219 9.9219c-1.6797 0-3.1406-1.3711-3.2695-3.0391-0.12109-1.6797 1.1406-3.0391 2.8086-3.0391 1.6719 0 3.1289 1.3711 3.2617 3.0391 0.12891 1.6797-1.1328 3.0391-2.8008 3.0391z"/>
  <path d="m81.871 55.879c-3.7695 0-6.5703 3.0898-6.2383 6.8789 0.32813 3.7891 3.6914 6.8789 7.4883 6.8789 3.7891 0 6.5898-3.0898 6.2383-6.8789-0.34766-3.7891-3.7109-6.8789-7.4883-6.8789zm0.89844 9.8828c-1.6484 0-3.1094-1.3516-3.2617-3-0.14844-1.6484 1.0703-3 2.7188-3 1.6484 0 3.1094 1.3516 3.2617 3 0.15234 1.6484-1.0664 3-2.7188 3z"/>
  <path d="m95.602 58.578l-0.87109-9.1094c-0.19141-2-1.75-2.9219-3.9297-3.6211l-9.0586-2.3398-5.9688-9.5312c-1.9492-2.7305-3.1914-3.6211-8.3008-3.6211l-39.273 0.003906c-1.8984 0-3.3516 1.5117-3.3203 3.4102h-17.32l1.0781 2.4297h16.398l0.12109 1.75h-9.5898l0.78906 1.7695h8.9219l0.12109 1.75h-13.457l1.0781 2.4297h12.551l0.12109 1.75h-5.7383l0.78906 1.7695h5.0703l0.12109 1.75-21.543 0.003906 1.0781 2.4297h20.641l0.12109 1.75h-13.832l0.78906 1.7695h13.16l0.23828 3.4492c0.14062 2 1.8711 3.6211 3.8594 3.6211h3.3984c-0.050781-3.9688 3-7.1289 7.0117-7.1289s7.5312 3.1484 8.0703 7.1289h25.949c-0.058594-2.3516 0.96094-4.5898 2.9688-5.9492 3.3203-2.2383 8.0781-1.1914 10.629 2.3516 0.80859 1.1211 1.3086 2.3594 1.5 3.6016h2.3594c1.9961 0.003907 3.457-1.6172 3.2695-3.6172zm-18.461-14.828h-13.398c-0.23828 0-0.46094-0.19922-0.48047-0.44141l-0.73047-8.7617c-0.019531-0.25 0.16016-0.44922 0.39844-0.44922h8.7188c0.23828 0 0.60937 0.089844 0.82031 0.44922l5.0703 8.7617c0.019532 0.24219-0.16016 0.44141-0.39844 0.44141zm15.98 8.3008h-1.9219c-0.35156 0-0.64844-0.28125-0.69141-0.62891l-0.12891-1.4219c-0.03125-0.35156 0.21875-0.62891 0.57031-0.62891h1.9219c0.33984 0 0.64844 0.28125 0.67969 0.62891l0.14062 1.4219c0.027344 0.33984-0.22266 0.62891-0.57031 0.62891z"/>
 </g>
</svg>
